Coordinates
version=1
nRows=12
nColumns=32
inDegrees=yes

Units are S.I. units (second, meters, Newtons, ...)
If the header above contains a line with 'inDegrees', this indicates whether rotational values are in degrees (yes) or radians (no).

endheader
time	pelvis_tilt	pelvis_list	pelvis_rotation	pelvis_tx	pelvis_ty	pelvis_tz	hip_flexion_r	hip_adduction_r	hip_rotation_r	knee_angle_r	knee_adduction_r	med_cond_adduction_r	lat_cond_adduction_r	patella_r_constrained_knee_angle	ankle_angle_r	subtalar_angle_r	mtp_angle_r	hip_flexion_l	hip_adduction_l	hip_rotation_l	knee_angle_l	knee_adduction_l	med_cond_adduction_l	lat_cond_adduction_l	patella_l_constrained_knee_angle	ankle_angle_l	subtalar_angle_l	mtp_angle_l	lumbar_extension	lumbar_bending	lumbar_rotation
      6.78500000	     -0.50553896	     -6.93219172	     92.61587058	      0.21325425	      0.87396002	     -2.74440119	     18.99051421	     -0.40698081	     16.12265034	     -9.50627760	      0.00000000	     -0.00000000	      0.00000000	     -0.16591584	     -2.85296413	      3.41010792	      0.00000000	      1.63621890	     -0.32877941	     -5.20963691	    -31.26243395	      0.00000000	     -0.00000000	     -0.00000000	     -0.54563240	    -14.23005916	      4.76804369	     -0.00000000	      0.00000000	      0.00000000	      0.00000000
      6.79000000	     -0.69280664	     -6.92206452	     92.61069888	      0.21286562	      0.87443620	     -2.74785832	     18.81546495	     -0.67494343	     15.35981099	     -9.68040945	      0.00000000	     -0.00000000	      0.00000000	     -0.16895502	     -2.36392770	      4.45301635	     -0.00000000	      1.96212021	     -0.09920193	     -5.28232170	    -31.96595778	     -0.00000000	     -0.00000000	      0.00000000	     -0.55791121	    -14.91587045	      4.07002609	      0.00000000	      0.00000000	      0.00000000	      0.00000000
      6.79500000	     -0.88667876	     -6.91535457	     92.60809702	      0.21246224	      0.87491795	     -2.75125264	     18.64395219	     -0.95825793	     14.56694786	     -9.84547485	      0.00000000	     -0.00000000	      0.00000000	     -0.17183595	     -1.89679087	      5.52806485	     -0.00000000	      2.31101536	      0.13800561	     -5.38131519	    -32.68665097	     -0.00000000	     -0.00000000	      0.00000000	     -0.57048968	    -15.50816957	      3.31413386	      0.00000000	      0.00000000	      0.00000000	      0.00000000
      6.80000000	     -1.07784235	     -6.90388472	     92.61936272	      0.21207291	      0.87542315	     -2.75459546	     18.45991428	     -1.24832957	     13.73872864	     -9.99483852	      0.00000000	      0.00000000	     -0.00000000	     -0.17444284	     -1.44496315	      6.62584451	      0.00000000	      2.67297476	      0.36802637	     -5.49042714	    -33.42501379	     -0.00000000	      0.00000000	      0.00000000	     -0.58337654	    -15.97979238	      2.52240584	     -0.00000000	      0.00000000	      0.00000000	      0.00000000
      6.80500000	     -1.26277236	     -6.90255602	     92.65292645	      0.21161891	      0.87593512	     -2.75785915	     18.29409186	     -1.55134480	     12.85056453	    -10.14851270	      0.00000000	     -0.00000000	      0.00000000	     -0.17712496	     -1.03602359	      7.80838633	     -0.00000000	      3.06170212	      0.60467186	     -5.57770769	    -34.16047581	     -0.00000000	      0.00000000	     -0.00000000	     -0.59621278	    -16.34715698	      1.63758929	      0.00000000	      0.00000000	      0.00000000	      0.00000000
      6.81000000	     -1.47302839	     -6.87873658	     92.63387145	      0.21121953	      0.87648159	     -2.76108269	     18.10520149	     -1.86874214	     12.00278040	    -10.29183825	     -0.00000000	      0.00000000	     -0.00000000	     -0.17962646	     -0.65098622	      8.92645591	      0.00000000	      3.42555741	      0.86281451	     -5.74023969	    -34.88369076	     -0.00000000	      0.00000000	     -0.00000000	     -0.60883526	    -16.57998604	      0.76860758	     -0.00000000	      0.00000000	      0.00000000	      0.00000000
      6.81500000	     -1.64479618	     -6.91242237	     92.65169982	      0.21083592	      0.87696632	     -2.76426932	     17.97282075	     -2.15991158	     11.08821500	    -10.42884205	      0.00000000	      0.00000000	     -0.00000000	     -0.18201763	     -0.30207752	     10.09085093	      0.00000000	      3.88073547	      1.07870725	     -5.90659135	    -35.62693818	      0.00000000	      0.00000000	     -0.00000000	     -0.62180737	    -16.75768724	     -0.28060031	     -0.00000000	     -0.00000000	      0.00000000	     -0.00000000
      6.82000000	     -1.84044675	     -6.93684107	     92.69300604	      0.21036850	      0.87747036	     -2.76731916	     17.84329236	     -2.49400167	     10.12402260	    -10.58524695	      0.00000000	      0.00000000	     -0.00000000	     -0.18474741	      0.06761905	     11.31315897	     -0.00000000	      4.33663641	      1.34084829	     -6.02148445	    -36.34467917	     -0.00000000	      0.00000000	     -0.00000000	     -0.63433432	    -16.80516715	     -1.42619303	     -0.00000000	     -0.00000000	      0.00000000	     -0.00000000
      6.82500000	     -2.00677310	     -6.94297304	     92.71647030	      0.20998457	      0.87798107	     -2.77035563	     17.69017712	     -2.78233197	      9.18575633	    -10.72450430	     -0.00000000	     -0.00000000	      0.00000000	     -0.18717791	      0.36698825	     12.43128399	      0.00000000	      4.78398501	      1.54688245	     -6.21010428	    -37.06348664	     -0.00000000	     -0.00000000	     -0.00000000	     -0.64687987	    -16.68275964	     -2.49287309	     -0.00000000	     -0.00000000	     -0.00000000	     -0.00000000
      6.83000000	     -2.23777998	     -6.93866078	     92.73969049	      0.20952585	      0.87854609	     -2.77330002	     17.52718354	     -3.14729305	      8.24202098	    -10.86049219	     -0.00000000	      0.00000000	     -0.00000000	     -0.18955135	      0.61690678	     13.53705382	      0.00000000	      5.21562660	      1.85131211	     -6.36850208	    -37.71273078	     -0.00000000	      0.00000000	     -0.00000000	     -0.65821132	    -16.59881126	     -3.78103932	      0.00000000	     -0.00000000	     -0.00000000	     -0.00000000
      6.83500000	     -2.39368620	     -6.98226403	     92.76538026	      0.20912516	      0.87899226	     -2.77617511	     17.43358651	     -3.43199739	      7.27182024	    -11.02851614	      0.00000000	      0.00000000	     -0.00000000	     -0.19248392	      0.90578277	     14.65125043	      0.00000000	      5.72111115	      2.05557358	     -6.56681433	    -38.37990047	      0.00000000	     -0.00000000	      0.00000000	     -0.66985563	    -16.24986828	     -4.91192371	      0.00000000	     -0.00000000	     -0.00000000	     -0.00000000
      6.84000000	     -2.59310110	     -7.01115826	     92.82319563	      0.20862764	      0.87948694	     -2.77897161	     17.31529016	     -3.77083427	      6.28391690	    -11.18419202	     -0.00000000	      0.00000000	     -0.00000000	     -0.19520097	      1.16057606	     15.62883795	      0.00000000	      6.21261584	      2.33475007	     -6.71572140	    -38.97439213	      0.00000000	     -0.00000000	      0.00000000	     -0.68023147	    -15.98572097	     -6.32655389	     -0.00000000	     -0.00000000	     -0.00000000	     -0.00000000
